<mxfile host="app.diagrams.net" modified="2023-10-23T18:29:19.653Z" agent="Mozilla/5.0 (Windows NT 10.0; Win64; x64) AppleWebKit/537.36 (KHTML, like Gecko) Chrome/118.0.0.0 Safari/537.36" etag="0-o4JQCuKHcQQx-bTIgm" version="21.6.2" type="device">
  <diagram name="Page-1" id="yK_mSVt2A8b1Je5v2kyU">
    <mxGraphModel dx="794" dy="466" grid="1" gridSize="10" guides="1" tooltips="1" connect="1" arrows="1" fold="1" page="1" pageScale="1" pageWidth="850" pageHeight="1100" math="0" shadow="0">
      <root>
        <mxCell id="0" />
        <mxCell id="1" parent="0" />
        <mxCell id="-qdKztqQWDkX80fQBe4T-1" value="NodeJS&amp;nbsp;&lt;br&gt;Backend&lt;br&gt;Jobs&lt;br&gt;Service" style="whiteSpace=wrap;html=1;aspect=fixed;" vertex="1" parent="1">
          <mxGeometry x="80" y="120" width="100" height="100" as="geometry" />
        </mxCell>
        <mxCell id="-qdKztqQWDkX80fQBe4T-2" value="" style="whiteSpace=wrap;html=1;aspect=fixed;" vertex="1" parent="1">
          <mxGeometry x="520" y="120" width="100" height="100" as="geometry" />
        </mxCell>
        <mxCell id="-qdKztqQWDkX80fQBe4T-3" value="Firebase&lt;br&gt;Cloud Store" style="shape=cylinder3;whiteSpace=wrap;html=1;boundedLbl=1;backgroundOutline=1;size=15;" vertex="1" parent="1">
          <mxGeometry x="320" y="290" width="90" height="120" as="geometry" />
        </mxCell>
        <mxCell id="-qdKztqQWDkX80fQBe4T-4" value="" style="endArrow=classic;html=1;rounded=0;exitX=0;exitY=0.25;exitDx=0;exitDy=0;entryX=1;entryY=0.25;entryDx=0;entryDy=0;" edge="1" parent="1" source="-qdKztqQWDkX80fQBe4T-2" target="-qdKztqQWDkX80fQBe4T-1">
          <mxGeometry width="50" height="50" relative="1" as="geometry">
            <mxPoint x="420" y="160" as="sourcePoint" />
            <mxPoint x="470" y="110" as="targetPoint" />
          </mxGeometry>
        </mxCell>
        <mxCell id="-qdKztqQWDkX80fQBe4T-5" value="GET/POST API request" style="text;html=1;strokeColor=none;fillColor=none;align=center;verticalAlign=middle;whiteSpace=wrap;rounded=0;" vertex="1" parent="1">
          <mxGeometry x="295" y="120" width="140" height="30" as="geometry" />
        </mxCell>
        <mxCell id="-qdKztqQWDkX80fQBe4T-6" value="" style="endArrow=classic;html=1;rounded=0;exitX=0.25;exitY=1;exitDx=0;exitDy=0;entryX=0;entryY=0;entryDx=0;entryDy=82.5;entryPerimeter=0;" edge="1" parent="1" source="-qdKztqQWDkX80fQBe4T-1" target="-qdKztqQWDkX80fQBe4T-3">
          <mxGeometry width="50" height="50" relative="1" as="geometry">
            <mxPoint x="170" y="370" as="sourcePoint" />
            <mxPoint x="220" y="320" as="targetPoint" />
          </mxGeometry>
        </mxCell>
        <mxCell id="-qdKztqQWDkX80fQBe4T-7" value="Request data from cloud store" style="text;html=1;strokeColor=none;fillColor=none;align=center;verticalAlign=middle;whiteSpace=wrap;rounded=0;" vertex="1" parent="1">
          <mxGeometry x="140" y="310" width="90" height="30" as="geometry" />
        </mxCell>
        <mxCell id="-qdKztqQWDkX80fQBe4T-8" value="" style="endArrow=classic;html=1;rounded=0;exitX=0;exitY=0;exitDx=0;exitDy=37.5;exitPerimeter=0;entryX=0.75;entryY=1;entryDx=0;entryDy=0;" edge="1" parent="1" source="-qdKztqQWDkX80fQBe4T-3" target="-qdKztqQWDkX80fQBe4T-1">
          <mxGeometry width="50" height="50" relative="1" as="geometry">
            <mxPoint x="330" y="290" as="sourcePoint" />
            <mxPoint x="380" y="240" as="targetPoint" />
          </mxGeometry>
        </mxCell>
        <mxCell id="-qdKztqQWDkX80fQBe4T-11" value="Response data from cloud store" style="text;html=1;strokeColor=none;fillColor=none;align=center;verticalAlign=middle;whiteSpace=wrap;rounded=0;" vertex="1" parent="1">
          <mxGeometry x="250" y="250" width="80" height="30" as="geometry" />
        </mxCell>
        <mxCell id="-qdKztqQWDkX80fQBe4T-13" value="" style="endArrow=classic;html=1;rounded=0;exitX=1.007;exitY=0.6;exitDx=0;exitDy=0;exitPerimeter=0;entryX=0.007;entryY=0.58;entryDx=0;entryDy=0;entryPerimeter=0;" edge="1" parent="1" source="-qdKztqQWDkX80fQBe4T-1" target="-qdKztqQWDkX80fQBe4T-2">
          <mxGeometry width="50" height="50" relative="1" as="geometry">
            <mxPoint x="340" y="230" as="sourcePoint" />
            <mxPoint x="510" y="180" as="targetPoint" />
          </mxGeometry>
        </mxCell>
        <mxCell id="-qdKztqQWDkX80fQBe4T-15" value="Processed data from service" style="text;html=1;strokeColor=none;fillColor=none;align=center;verticalAlign=middle;whiteSpace=wrap;rounded=0;" vertex="1" parent="1">
          <mxGeometry x="300" y="190" width="90" height="30" as="geometry" />
        </mxCell>
        <mxCell id="-qdKztqQWDkX80fQBe4T-16" value="" style="endArrow=none;html=1;rounded=0;" edge="1" parent="1">
          <mxGeometry width="50" height="50" relative="1" as="geometry">
            <mxPoint x="490" y="250" as="sourcePoint" />
            <mxPoint x="520" y="220" as="targetPoint" />
          </mxGeometry>
        </mxCell>
        <mxCell id="-qdKztqQWDkX80fQBe4T-17" value="" style="endArrow=none;html=1;rounded=0;entryX=1;entryY=1;entryDx=0;entryDy=0;" edge="1" parent="1" target="-qdKztqQWDkX80fQBe4T-2">
          <mxGeometry width="50" height="50" relative="1" as="geometry">
            <mxPoint x="650" y="250" as="sourcePoint" />
            <mxPoint x="530" y="230" as="targetPoint" />
          </mxGeometry>
        </mxCell>
        <mxCell id="-qdKztqQWDkX80fQBe4T-18" value="" style="endArrow=none;html=1;rounded=0;" edge="1" parent="1">
          <mxGeometry width="50" height="50" relative="1" as="geometry">
            <mxPoint x="490" y="250" as="sourcePoint" />
            <mxPoint x="650" y="250" as="targetPoint" />
          </mxGeometry>
        </mxCell>
        <mxCell id="-qdKztqQWDkX80fQBe4T-19" value="" style="rounded=0;whiteSpace=wrap;html=1;" vertex="1" parent="1">
          <mxGeometry x="530" y="130" width="80" height="80" as="geometry" />
        </mxCell>
        <mxCell id="-qdKztqQWDkX80fQBe4T-20" value="React frontend" style="text;html=1;strokeColor=none;fillColor=none;align=center;verticalAlign=middle;whiteSpace=wrap;rounded=0;" vertex="1" parent="1">
          <mxGeometry x="540" y="155" width="60" height="30" as="geometry" />
        </mxCell>
      </root>
    </mxGraphModel>
  </diagram>
</mxfile>
